<?xml version="1.0" standalone="no"?>
<!DOCTYPE svg PUBLIC "-//W3C//DTD SVG 20010904//EN"
 "http://www.w3.org/TR/2001/REC-SVG-20010904/DTD/svg10.dtd">
<svg version="1.0" xmlns="http://www.w3.org/2000/svg"
 width="512.000000pt" height="512.000000pt" viewBox="0 0 512.000000 512.000000"
 preserveAspectRatio="xMidYMid meet">
<metadata>
Created by potrace 1.11, written by Peter Selinger 2001-2013
</metadata>
<g transform="translate(0.000000,512.000000) scale(0.100000,-0.100000)"
fill="#000000" stroke="none">
<path d="M2466 5023 c-1 -1 -24 -3 -51 -5 -28 -2 -54 -6 -60 -10 -17 -9 -158
-51 -185 -54 -13 -2 -26 -7 -28 -13 -2 -5 -9 -8 -16 -5 -7 3 -40 -18 -73 -45
-33 -28 -62 -48 -65 -45 -3 2 -11 -2 -18 -11 -7 -8 -10 -15 -6 -15 4 0 -12
-23 -34 -52 -47 -59 -72 -104 -74 -133 -3 -46 -30 -175 -37 -175 -4 0 -10 -12
-13 -28 -6 -25 -16 -30 -101 -57 -52 -17 -95 -33 -95 -37 0 -3 -17 -17 -37
-29 -20 -13 -52 -36 -70 -52 -19 -16 -36 -27 -40 -24 -3 4 -17 -11 -32 -33
-14 -21 -46 -60 -71 -86 -25 -26 -45 -50 -45 -53 -1 -14 -92 -140 -97 -135 -4
3 -9 -5 -13 -18 -10 -32 -75 -140 -93 -155 -8 -7 -15 -20 -16 -30 -2 -24 -61
-144 -83 -169 -19 -21 -24 -35 -27 -69 -3 -36 -39 -134 -48 -129 -7 5 -13 -18
-9 -39 2 -13 -46 -158 -64 -194 -9 -18 -14 -37 -10 -42 6 -11 -23 -140 -36
-157 -5 -6 -11 -37 -14 -68 -2 -31 -11 -69 -18 -84 -8 -15 -13 -37 -12 -50 1
-13 -2 -25 -7 -28 -4 -3 -8 -22 -8 -42 0 -44 -24 -185 -39 -227 -6 -16 -10
-41 -8 -55 4 -42 -14 -170 -24 -170 -6 0 -7 -17 -4 -41 4 -25 2 -46 -6 -55 -6
-8 -9 -26 -6 -41 3 -15 1 -54 -4 -87 -13 -80 -19 -168 -19 -239 0 -32 -4 -56
-8 -53 -5 3 -9 -34 -9 -82 0 -48 -3 -152 -7 -232 -5 -80 -9 -221 -11 -315 -2
-93 -4 -188 -5 -210 -5 -110 4 -297 16 -322 27 -59 44 -106 44 -124 0 -10 6
-22 13 -26 6 -4 32 -34 56 -65 24 -32 47 -58 52 -58 4 0 6 -9 4 -19 -3 -14 1
-18 11 -14 8 3 31 -6 52 -20 20 -14 58 -36 85 -48 26 -13 47 -26 47 -30 0 -4
8 -5 19 -2 10 3 22 0 25 -6 4 -5 13 -8 21 -4 8 3 15 1 15 -4 0 -12 -141 -11
1495 -11 1643 0 1485 -1 1485 9 0 5 7 6 15 3 8 -4 15 -1 15 6 0 6 4 9 9 5 5
-3 13 0 16 6 4 5 13 8 21 5 7 -3 17 1 21 8 9 15 130 99 157 110 10 3 16 9 13
13 -4 3 10 25 31 48 67 76 92 109 92 122 0 7 9 30 20 50 11 21 17 46 14 57 -3
10 -2 16 3 13 5 -3 7 7 5 25 -3 19 1 33 9 39 11 7 11 9 1 9 -7 0 -11 4 -8 8 2
4 6 46 7 92 1 47 6 93 11 103 5 9 5 17 0 17 -13 0 -12 319 0 326 6 4 5 10 -3
15 -11 6 -14 42 -16 144 -1 74 2 135 6 135 5 0 2 18 -5 41 -8 22 -14 71 -13
107 2 89 -9 281 -22 361 -5 35 -7 77 -4 92 3 15 2 30 -3 33 -6 3 -8 26 -5 51
2 25 0 45 -5 45 -9 0 -29 143 -25 185 1 11 -3 34 -8 50 -13 45 -38 199 -43
272 0 11 -5 19 -10 16 -4 -3 -5 3 -2 14 4 11 -1 36 -9 57 -9 20 -16 54 -17 74
0 20 -4 42 -9 47 -12 16 -49 176 -43 186 3 6 -3 26 -14 47 -10 20 -27 71 -37
112 -10 41 -22 83 -27 93 -19 38 -57 151 -52 158 7 12 -18 59 -29 52 -6 -3 -7
-1 -3 6 4 6 2 18 -4 26 -12 14 -65 121 -68 138 -1 4 -2 14 -2 24 0 9 -3 13 -7
10 -3 -4 -24 23 -46 59 -34 58 -43 78 -46 107 -1 4 -7 7 -13 7 -14 1 -88 101
-101 137 -5 13 -13 23 -18 23 -11 0 -77 71 -102 110 -10 16 -54 52 -97 82 -44
29 -80 56 -80 60 0 5 -6 8 -14 8 -30 0 -182 55 -196 71 -8 9 -20 14 -27 12 -7
-3 -16 11 -21 34 -5 21 -14 60 -21 86 -6 27 -9 53 -6 58 4 5 2 9 -4 9 -6 0 -7
7 -4 17 4 9 2 14 -4 10 -11 -7 -56 80 -48 93 2 4 -3 14 -13 21 -16 13 -16 13
-2 -6 14 -19 14 -19 -3 -6 -9 7 -16 19 -15 25 4 16 -43 66 -55 59 -6 -3 -7 -1
-4 4 8 13 -19 37 -32 29 -5 -4 -13 -1 -17 5 -5 8 -3 9 6 4 8 -5 11 -4 6 3 -4
6 -13 9 -20 6 -7 -3 -24 6 -37 20 -13 14 -28 26 -34 26 -13 -1 -179 54 -185
60 -3 3 -22 6 -42 6 -20 0 -44 7 -53 14 -11 9 -48 14 -111 14 -53 1 -96 0 -98
-1z m97 -185 c-2 -5 13 -7 34 -6 51 2 116 -33 179 -96 53 -52 105 -141 97
-164 -3 -7 1 -20 8 -28 10 -12 10 -17 0 -23 -10 -6 -9 -12 3 -24 15 -14 14
-16 -1 -20 -10 -3 -172 -5 -360 -4 -339 1 -343 1 -343 21 0 42 13 95 21 90 5
-3 9 7 9 21 0 35 31 93 69 129 17 17 31 26 31 22 0 -4 6 -1 14 6 8 7 12 16 10
19 -5 9 70 48 112 57 47 10 124 10 117 0z m192 -580 c33 -5 64 -13 70 -16 19
-13 75 -30 70 -21 -10 15 113 -28 136 -47 8 -8 21 -14 28 -14 17 0 129 -58
149 -78 10 -9 35 -26 55 -36 21 -11 60 -41 88 -68 27 -26 53 -48 58 -48 11 0
76 -70 104 -113 14 -21 29 -37 32 -37 12 2 92 -108 99 -135 4 -14 10 -24 15
-21 10 6 93 -132 86 -143 -2 -5 3 -15 12 -22 20 -17 73 -134 78 -172 2 -15 13
-47 24 -70 26 -54 52 -138 45 -148 -3 -5 2 -21 9 -36 16 -30 25 -78 31 -158 2
-28 7 -67 11 -86 6 -33 5 -37 -19 -41 -14 -3 -23 -2 -21 3 3 4 -10 2 -29 -3
-74 -23 -116 19 -118 120 0 26 -3 49 -7 52 -10 8 -39 140 -30 134 14 -8 10 10
-6 32 -8 10 -15 27 -15 36 0 9 -3 18 -7 20 -9 3 -73 159 -73 175 0 6 -16 35
-35 65 -20 29 -45 72 -56 95 -11 23 -36 59 -55 80 -19 20 -32 43 -30 49 3 7
-5 20 -17 31 l-22 18 20 -25 20 -25 -22 19 c-13 10 -20 22 -18 27 3 4 1 10 -5
14 -6 4 -7 12 -4 18 4 7 4 9 -1 5 -5 -5 -15 1 -22 12 -8 11 -19 18 -24 14 -5
-3 -8 0 -7 8 2 7 -3 12 -10 10 -8 -1 -11 1 -8 6 3 5 -8 22 -24 37 -17 16 -30
25 -30 20 0 -5 -7 1 -16 13 -8 12 -19 20 -24 17 -5 -3 -12 0 -16 6 -4 7 -3 9
4 5 6 -3 13 -2 17 3 3 6 -4 8 -15 6 -19 -4 -104 51 -121 77 -3 5 -12 10 -20
12 -8 1 -56 23 -108 49 -52 26 -97 45 -99 42 -2 -2 -35 7 -73 21 -38 14 -75
24 -81 23 -25 -3 -39 1 -33 10 3 6 -7 6 -26 1 -18 -5 -35 -7 -39 -5 -9 5 -175
6 -220 1 -19 -2 -65 -13 -102 -24 -37 -10 -69 -18 -71 -15 -2 2 -45 -17 -96
-42 -50 -25 -97 -45 -104 -45 -8 0 -22 -9 -31 -19 -10 -11 -24 -17 -32 -14 -8
3 -14 0 -14 -6 0 -6 -7 -11 -15 -11 -24 0 -297 -278 -289 -293 4 -6 4 -9 -1
-5 -11 10 -48 -39 -39 -53 4 -7 3 -9 -3 -6 -6 4 -14 0 -17 -9 -3 -9 -11 -12
-18 -8 -10 5 -10 4 -1 -6 10 -10 5 -27 -24 -79 -20 -36 -43 -71 -51 -78 -8 -7
-15 -20 -16 -30 -2 -25 -58 -167 -69 -174 -6 -4 -10 -15 -11 -25 -2 -11 -8
-32 -15 -49 -7 -16 -15 -49 -16 -71 -2 -23 -11 -56 -20 -73 -9 -17 -13 -36
-10 -40 9 -16 -18 -110 -38 -132 -15 -16 -25 -19 -50 -13 -18 4 -49 7 -70 6
-41 -3 -58 17 -37 43 7 8 14 34 15 58 4 61 26 170 37 184 5 7 11 22 13 35 5
40 18 82 32 104 7 11 14 32 15 46 1 15 6 24 10 22 7 -5 12 18 9 39 -2 10 56
136 77 167 9 14 17 31 18 38 3 20 52 99 79 128 14 15 25 31 25 36 0 15 80 116
106 133 13 8 24 22 24 29 0 16 83 93 118 109 12 6 22 15 22 21 0 14 95 85 133
100 15 6 27 14 27 18 0 11 129 81 156 84 13 1 30 9 39 17 20 21 112 50 126 41
7 -4 9 -3 6 2 -3 6 10 11 30 11 20 1 38 6 42 11 17 27 324 41 446 20z m-1165
-1818 c0 -6 9 -6 23 -1 28 11 742 11 779 0 16 -4 28 -4 28 0 0 4 131 8 290 8
160 0 290 -4 290 -8 0 -5 11 -4 24 0 31 12 527 10 543 -2 7 -5 20 -7 28 -3 21
8 137 -30 170 -56 16 -12 35 -23 43 -25 20 -2 112 -94 112 -110 0 -7 8 -17 18
-22 29 -15 75 -127 74 -178 -1 -23 3 -43 8 -43 14 0 3 -181 -14 -231 -8 -24
-17 -69 -20 -99 -7 -75 -25 -159 -43 -193 -7 -15 -11 -32 -8 -36 3 -5 -4 -30
-15 -55 -10 -25 -17 -52 -15 -59 3 -7 -4 -30 -15 -52 -11 -21 -20 -46 -20 -55
0 -27 -53 -169 -62 -164 -7 5 -12 -17 -9 -38 0 -4 -16 -38 -36 -75 -20 -36
-31 -63 -24 -59 10 7 11 4 2 -13 -7 -11 -16 -21 -21 -21 -6 0 -10 -10 -10 -23
0 -13 -14 -45 -31 -73 -36 -56 -196 -217 -208 -209 -5 2 -21 -7 -35 -20 -30
-28 -132 -83 -121 -66 8 13 -38 -5 -75 -30 -35 -23 -128 -52 -164 -51 -17 0
-33 -3 -36 -7 -9 -14 -110 -25 -110 -12 0 8 -6 8 -22 -1 -26 -14 -110 -20
-285 -21 -68 0 -123 -4 -123 -9 0 -5 -15 -6 -32 -3 -42 6 -210 17 -263 16 -22
-1 -62 3 -90 9 -27 6 -74 12 -103 15 -30 2 -60 9 -68 16 -7 6 -21 9 -29 5 -11
-4 -14 -2 -9 6 5 8 0 9 -16 5 -13 -3 -29 -2 -35 3 -7 6 -30 12 -53 15 -47 6
-154 43 -163 57 -3 5 -18 12 -32 16 -33 9 -137 83 -137 98 0 7 -11 19 -25 28
-31 20 -95 114 -95 139 0 10 -7 25 -15 33 -17 18 -47 113 -51 164 -2 19 -3 35
-4 35 -1 0 -3 11 -5 25 -1 14 -12 60 -23 103 -16 56 -19 84 -12 102 7 17 6 24
-2 22 -13 -2 -26 40 -33 103 -8 88 -18 140 -25 140 -9 0 -38 145 -44 218 -3
29 -9 59 -14 65 -22 28 -41 257 -21 257 7 0 9 10 6 28 -8 41 31 148 66 182 17
17 27 30 23 30 -14 0 20 39 65 75 24 19 49 35 56 35 7 0 28 11 47 23 34 24
146 54 163 44 4 -2 17 -1 28 4 28 11 35 11 35 -1z"/>
<path d="M2585 2241 c-3 -5 -87 -9 -187 -9 -463 -2 -921 -11 -927 -20 -3 -5
-19 -16 -36 -25 -51 -26 -101 -88 -114 -139 -14 -58 -16 -224 -3 -241 12 -16
32 -120 32 -168 0 -20 5 -39 11 -41 6 -2 12 -27 12 -56 1 -28 4 -52 7 -52 3 0
7 -8 8 -17 7 -68 13 -97 21 -107 10 -12 38 -154 40 -204 1 -18 8 -49 16 -70
18 -49 37 -141 30 -152 -3 -5 -1 -17 5 -27 23 -42 59 -136 55 -143 -3 -5 0
-12 6 -16 8 -5 9 -3 4 7 -5 8 -4 11 1 6 5 -5 9 -12 9 -15 1 -19 27 -52 37 -46
6 4 8 3 5 -3 -8 -13 19 -37 32 -29 5 4 13 1 17 -5 5 -8 3 -9 -6 -4 -9 5 -11 4
-6 -4 4 -6 11 -9 16 -6 9 6 59 -21 71 -38 3 -5 17 -10 30 -11 45 -6 174 -39
179 -47 3 -5 27 -10 53 -11 26 -2 47 -7 47 -12 0 -4 7 -5 15 -2 21 8 136 -5
130 -15 -3 -4 25 -7 62 -7 38 1 145 0 238 -1 151 -1 240 2 395 13 25 2 76 11
114 19 38 9 72 15 76 12 10 -6 80 17 80 27 0 4 5 8 11 8 6 0 39 13 73 29 33
16 71 32 84 36 13 4 21 9 18 12 -3 3 16 22 42 42 26 21 53 45 61 54 7 9 16 15
20 13 3 -2 12 2 19 10 7 8 11 14 8 14 -8 0 77 154 86 158 4 2 8 14 8 26 0 13
8 34 19 47 10 13 22 35 26 49 4 14 13 31 19 39 8 11 8 13 -1 8 -7 -5 -9 0 -6
13 3 11 9 17 14 14 5 -3 10 3 10 13 2 31 3 36 28 121 14 45 28 82 33 82 4 0 8
13 8 29 0 16 9 49 20 74 11 25 18 52 14 60 -3 8 2 31 10 52 9 20 14 41 11 45
-3 4 5 52 16 107 23 104 26 219 7 288 -6 22 -12 49 -13 60 -1 11 -3 24 -4 29
0 5 -4 6 -7 3 -4 -3 -16 5 -27 20 -11 14 -43 40 -71 58 -62 39 -44 38 -640 37
-231 0 -430 4 -442 9 -13 4 -26 4 -29 0z"/>
<path d="M1020 4963 c0 -5 -35 -10 -77 -12 -43 -1 -97 -7 -120 -12 -24 -5 -46
-9 -50 -8 -22 4 -44 -2 -39 -10 3 -5 -1 -12 -10 -15 -10 -4 -13 -2 -8 6 13 21
-26 -7 -76 -55 -40 -38 -84 -97 -63 -84 11 7 -28 -113 -48 -146 -5 -10 -13
-44 -16 -75 -10 -90 -4 -392 7 -392 9 0 33 -98 36 -145 1 -22 7 -41 13 -43 5
-2 7 -10 4 -19 -3 -8 -1 -18 4 -22 10 -6 44 -144 48 -192 1 -14 5 -31 9 -37 4
-7 9 -33 12 -59 2 -25 9 -52 15 -59 6 -7 12 -31 13 -53 1 -22 5 -43 9 -47 9
-9 68 56 61 67 -3 5 -1 9 4 9 5 0 14 12 20 26 9 18 9 23 1 18 -7 -4 -7 1 1 16
23 42 29 132 13 167 -8 18 -13 39 -10 46 3 8 -1 27 -8 43 -17 36 -46 190 -39
208 3 7 0 26 -6 42 -17 43 -40 182 -33 199 3 9 0 21 -5 28 -6 7 -11 36 -10 65
0 29 -5 59 -12 67 -16 19 3 85 36 125 21 24 31 29 52 23 15 -4 35 -6 45 -5 10
0 15 -4 11 -10 -4 -7 -2 -8 4 -4 13 8 48 -8 77 -36 11 -10 41 -32 67 -49 26
-16 64 -48 86 -69 22 -22 43 -40 47 -40 3 0 26 -16 49 -35 24 -19 47 -35 51
-35 5 0 22 11 39 24 17 12 39 22 49 20 11 -1 16 0 13 3 -10 10 15 45 29 39 7
-2 19 3 27 12 12 16 11 16 -7 2 -19 -14 -19 -14 -6 2 7 10 17 15 23 12 12 -8
39 16 32 27 -3 5 -2 8 3 7 4 -1 18 3 29 10 12 6 24 9 27 5 4 -3 4 4 2 16 -2
12 0 19 4 16 5 -2 20 6 34 19 14 13 46 38 70 56 62 44 89 81 71 98 -8 7 -14
10 -14 6 0 -3 -15 5 -33 18 -17 14 -49 37 -69 50 -20 14 -34 28 -31 32 6 6
-12 9 -21 4 -2 -2 -12 4 -22 12 -33 27 -79 48 -93 42 -8 -2 -11 -1 -8 4 3 5
-8 9 -23 10 -16 1 -36 9 -45 18 -9 9 -21 14 -25 11 -12 -7 -192 25 -207 38 -7
5 -13 5 -13 0z"/>
<path d="M4020 4934 c-41 -7 -93 -14 -115 -15 -22 -1 -43 -6 -46 -11 -3 -5
-21 -11 -40 -13 -39 -4 -105 -30 -114 -45 -3 -5 -15 -10 -26 -10 -10 0 -19 -4
-19 -9 0 -7 -82 -68 -132 -97 -39 -23 -41 -31 -17 -63 12 -17 28 -31 33 -31 6
0 25 -12 41 -28 78 -71 196 -162 205 -157 5 3 21 -10 37 -30 15 -19 34 -35 41
-35 8 0 33 -16 56 -35 24 -19 47 -35 51 -35 10 0 115 109 115 120 0 11 107
115 120 116 5 1 15 2 20 3 6 0 10 7 10 14 0 7 21 23 46 35 25 12 43 18 39 13
-3 -6 12 -4 35 4 40 14 41 14 76 -17 l36 -32 -6 -65 c-4 -36 -6 -83 -6 -103 0
-21 -4 -38 -10 -38 -5 0 -10 -21 -10 -47 -1 -51 -22 -161 -35 -182 -4 -7 -9
-36 -11 -65 -2 -28 -13 -85 -24 -126 -11 -41 -22 -94 -25 -118 -2 -24 -8 -49
-14 -55 -6 -8 -6 -37 -1 -77 4 -36 5 -69 3 -73 -3 -4 1 -14 7 -22 7 -8 10 -15
6 -15 -8 0 35 -83 48 -92 16 -11 36 3 36 27 0 13 5 27 10 30 6 4 8 11 5 16 -4
5 -2 9 4 9 12 0 22 30 25 80 2 22 9 46 16 55 7 8 10 21 7 29 -7 18 28 168 49
214 8 18 12 37 9 42 -8 12 25 162 37 171 10 7 21 107 20 174 -1 28 3 59 9 71
7 15 7 36 -1 75 -6 30 -12 65 -14 79 -1 14 -7 38 -14 53 -7 16 -12 34 -12 40
0 7 -10 32 -21 57 -11 25 -22 54 -25 64 -5 25 -74 97 -86 90 -5 -3 -25 4 -46
17 -20 12 -48 23 -62 25 -96 9 -219 24 -231 27 -8 3 -48 -2 -89 -9z m466 -96
l29 -33 -32 29 c-31 28 -38 36 -30 36 2 0 16 -15 33 -32z"/>
<path d="M3805 4430 c10 -11 20 -20 23 -20 3 0 -3 9 -13 20 -10 11 -20 20 -23
20 -3 0 3 -9 13 -20z"/>
<path d="M595 2281 c-3 -5 -2 -12 3 -15 5 -3 9 1 9 9 0 17 -3 19 -12 6z"/>
</g>
</svg>
