<svg xmlns="http://www.w3.org/2000/svg" width="352.195" height="319.217" viewBox="0 0 352.195 319.217">  <g id="Group_8" data-name="Group 8" transform="translate(-388.091 -35.884)">    <path id="Path_17" data-name="Path 17" d="M901.327,359.286c-29.238-21.858-75.032-42.529-125.639-56.714-46.078-12.915-91.021-19.151-126.56-17.558l-.185-4.133c35.962-1.611,81.372,4.677,127.862,17.708,51.079,14.317,97.369,35.232,127,57.384Z" transform="translate(-196.07 -159.209)" fill="#ccc"/>    <path id="Path_18" data-name="Path 18" d="M898.291,376.122a137.672,137.672,0,0,1-11.914,56.209q-.987,2.222-2.056,4.4a138.195,138.195,0,0,1-262.378-60.611q0-4.8.327-9.519.155-2.4.4-4.774a138.181,138.181,0,0,1,275.621,14.293Z" transform="translate(-196.07 -159.209)" fill="#6c63ff"/>    <path id="Path_19" data-name="Path 19" d="M886.377,432.331q-.987,2.222-2.056,4.4-6.056.658-12.75.956c-3.694.165-7.5.248-11.381.248-33.931,0-74.767-6.263-116.484-17.954-46.491-13.031-88.552-31.259-118.437-51.327q-1.527-1.024-3-2.052.155-2.4.4-4.774,2.377,1.694,4.9,3.392c29.534,19.828,71.172,37.861,117.25,50.777,41.353,11.592,81.8,17.8,115.347,17.8q5.752,0,11.215-.244Q879.34,433.2,886.377,432.331Z" transform="translate(-196.07 -159.209)" opacity="0.1" style="isolation: isolate"/>    <path id="Path_20" data-name="Path 20" d="M860.191,434.627c-33.93,0-74.769-6.263-116.484-17.955-46.491-13.031-88.553-31.259-118.439-51.327-30.509-20.487-44.816-40.673-40.284-56.841s27.246-25.978,63.958-27.624l.185,4.133c-17.144.768-31.116,3.316-41.528,7.574-10.386,4.247-16.655,9.978-18.633,17.034s.4,15.21,7.065,24.236c6.682,9.048,17.294,18.487,31.542,28.054,29.53,19.829,71.17,37.863,117.249,50.778,41.354,11.591,81.8,17.8,115.347,17.8q5.749,0,11.213-.244c17.145-.768,31.116-3.316,41.528-7.574,10.386-4.247,16.655-9.978,18.633-17.033,3.551-12.669-7.18-29.132-30.217-46.354l2.477-3.313c11.855,8.863,20.63,17.6,26.082,25.964,5.845,8.969,7.743,17.32,5.641,24.819-4.532,16.168-27.246,25.978-63.958,27.624C867.875,434.545,864.075,434.627,860.191,434.627Z" transform="translate(-196.07 -159.209)" fill="#ccc"/>    <circle id="Ellipse_1" data-name="Ellipse 1" cx="1.583" cy="1.583" r="1.583" transform="translate(566.119 50.651)" fill="#f2f2f2"/>    <circle id="Ellipse_11" data-name="Ellipse 11" cx="11.611" cy="11.611" r="11.611" transform="translate(554.508 97.106)" opacity="0.1" style="isolation: isolate"/>    <circle id="Ellipse_12" data-name="Ellipse 12" cx="11.611" cy="11.611" r="11.611" transform="translate(465.312 182.079)" opacity="0.1" style="isolation: isolate"/>    <circle id="Ellipse_13" data-name="Ellipse 13" cx="11.611" cy="11.611" r="11.611" transform="translate(593.563 298.719)" opacity="0.1" style="isolation: isolate"/>    <circle id="Ellipse_14" data-name="Ellipse 14" cx="11.611" cy="11.611" r="11.611" transform="translate(554.508 200.024)" opacity="0.1" style="isolation: isolate"/>    <circle id="Ellipse_15" data-name="Ellipse 15" cx="11.611" cy="11.611" r="11.611" transform="translate(471.118 263.885)" opacity="0.1" style="isolation: isolate"/>    <circle id="Ellipse_16" data-name="Ellipse 16" cx="11.611" cy="11.611" r="11.611" transform="translate(616.786 137.745)" opacity="0.1" style="isolation: isolate"/>    <circle id="Ellipse_17" data-name="Ellipse 17" cx="11.611" cy="11.611" r="11.611" transform="translate(655.314 216.385)" opacity="0.1" style="isolation: isolate"/>    <circle id="Ellipse_18" data-name="Ellipse 18" cx="15.306" cy="15.306" r="15.306" transform="translate(550.813 145.662)" fill="#fff"/>    <path id="Path_24" data-name="Path 24" d="M762.189,298.01a21.639,21.639,0,0,0-21.639,21.639c0,11.951,21.639,51.195,21.639,51.195s21.639-39.244,21.639-51.195A21.639,21.639,0,0,0,762.189,298.01Zm0,32.195a10.028,10.028,0,1,1,10.028-10.028A10.028,10.028,0,0,1,762.189,330.2Z" transform="translate(-196.07 -159.209)" fill="#ccc"/>    <circle id="Ellipse_19" data-name="Ellipse 19" cx="15.306" cy="15.306" r="15.306" transform="translate(467.424 211.107)" fill="#fff"/>    <path id="Path_25" data-name="Path 25" d="M678.8,363.455a21.639,21.639,0,0,0-21.639,21.639c0,11.951,21.639,51.195,21.639,51.195s21.639-39.244,21.639-51.195A21.639,21.639,0,0,0,678.8,363.455Zm0,32.195a10.028,10.028,0,1,1,10.028-10.028A10.028,10.028,0,0,1,678.8,395.65Z" transform="translate(-196.07 -159.209)" fill="#ccc"/>    <circle id="Ellipse_20" data-name="Ellipse 20" cx="15.306" cy="15.306" r="15.306" transform="translate(651.619 163.607)" fill="#fff"/>    <path id="Path_26" data-name="Path 26" d="M863,315.955a21.639,21.639,0,0,0-21.639,21.639c0,11.951,21.639,51.195,21.639,51.195s21.639-39.244,21.639-51.195a21.639,21.639,0,0,0-21.639-21.639Zm0,32.195a10.028,10.028,0,1,1,10.028-10.028A10.028,10.028,0,0,1,863,348.149Z" transform="translate(-196.07 -159.209)" fill="#ccc"/>    <circle id="Ellipse_21" data-name="Ellipse 21" cx="15.306" cy="15.306" r="15.306" transform="translate(550.813 42.745)" fill="#fff"/>    <path id="Path_27" data-name="Path 27" d="M762.189,195.093a21.639,21.639,0,0,0-21.639,21.639c0,11.951,21.639,51.195,21.639,51.195s21.639-39.244,21.639-51.195a21.639,21.639,0,0,0-21.639-21.639Zm0,32.195a10.028,10.028,0,1,1,10.028-10.028,10.028,10.028,0,0,1-10.028,10.028Z" transform="translate(-196.07 -159.209)" fill="#ccc"/>    <circle id="Ellipse_22" data-name="Ellipse 22" cx="15.306" cy="15.306" r="15.306" transform="translate(589.869 245.941)" fill="#fff"/>    <path id="Path_28" data-name="Path 28" d="M801.245,398.289a21.639,21.639,0,0,0-21.639,21.639c0,11.951,21.639,51.195,21.639,51.195s21.639-39.244,21.639-51.195a21.639,21.639,0,0,0-21.639-21.639Zm0,32.195a10.028,10.028,0,1,1,10.028-10.028,10.028,10.028,0,0,1-10.028,10.028Z" transform="translate(-196.07 -159.209)" fill="#3f3d56"/>    <circle id="Ellipse_23" data-name="Ellipse 23" cx="15.306" cy="15.306" r="15.306" transform="translate(461.618 128.245)" fill="#fff"/>    <path id="Path_29" data-name="Path 29" d="M672.994,280.593a21.639,21.639,0,0,0-21.639,21.639c0,11.951,21.639,51.195,21.639,51.195s21.639-39.244,21.639-51.195A21.639,21.639,0,0,0,672.994,280.593Zm0,32.195a10.028,10.028,0,1,1,10.028-10.028,10.028,10.028,0,0,1-10.028,10.028Z" transform="translate(-196.07 -159.209)" fill="#3f3d56"/>    <circle id="Ellipse_24" data-name="Ellipse 24" cx="15.306" cy="15.306" r="15.306" transform="translate(613.091 85.495)" fill="#fff"/>    <path id="Path_30" data-name="Path 30" d="M824.467,237.843a21.639,21.639,0,0,0-21.639,21.639c0,11.951,21.639,51.195,21.639,51.195s21.639-39.244,21.639-51.195a21.639,21.639,0,0,0-21.639-21.639Zm0,32.195a10.028,10.028,0,1,1,10.028-10.028,10.028,10.028,0,0,1-10.028,10.028h0Z" transform="translate(-196.07 -159.209)" fill="#3f3d56"/>  </g></svg>
